<?xml version="1.0" encoding="UTF-8"?>
<svg width="188px" height="35px" viewBox="0 0 188 35" version="1.1" xmlns="http://www.w3.org/2000/svg" xmlns:xlink="http://www.w3.org/1999/xlink">
    <!-- Generator: Sketch 51.2 (57519) - http://www.bohemiancoding.com/sketch -->
    <title>Group</title>
    <desc>Created with Sketch.</desc>
    <defs></defs>
    <g id="Page-1" stroke="none" stroke-width="1" fill="none" fill-rule="evenodd">
        <g id="Group">
            <path d="M32.5079525,20 C36.1421059,20.0291006 39.037915,23.179956 38.9996246,27.0828627 C38.9626546,30.8585255 36.1357681,34.0119486 32.4799609,33.999966 C28.8711585,33.9879834 25.974293,30.8747876 26.000172,26.9607542 C26.0263151,22.9608454 29.028017,20.0068472 32.5079525,20" id="Fill-3" fill="#FFFFFF"></path>
            <path d="M0.000322995007,26.991165 C-0.0197528772,23.2447639 2.80909601,20.0148912 6.47532008,20.0000517 C10.0300702,19.9854976 13.009224,23.0452868 12.9999785,27.0219855 C12.9907331,30.9107888 10.0966376,34.0108159 6.48377308,33.9999716 C2.71532055,33.9885566 -0.0342814689,30.662798 0.000322995007,26.991165" id="Fill-4" fill="#FFFFFF"></path>
            <path d="M26,8.99700808 C25.9700443,12.9264061 23.0524136,15.9945466 19.5057134,15.9999921 C15.9179236,16.0057243 13.0103664,12.8728104 13.0000278,9.01592422 C12.9899542,5.30635466 15.722814,2.01351338 19.4762879,2.00004279 C23.1526193,1.98657221 25.9679236,5.15502555 26,8.99700808" id="Fill-6" fill="#D8232A"></path>
            <path d="M118.432993,17.3173525 C118.432993,17.5631522 118.425207,17.8089519 118.434105,18.0547517 C118.59428,23.0993887 122.130364,27.9740335 128.254831,27.4904742 C131.507272,27.2343371 133.91657,25.5918437 135.429333,22.63995 C136.813067,19.9407476 137.016622,17.0520267 136.205737,14.136888 C135.283618,10.8185919 133.229152,8.50302081 129.95224,7.65995077 C126.560758,6.78816581 123.449583,7.48880985 120.946849,10.1719319 C119.095939,12.1567072 118.428544,14.6204473 118.432993,17.3173525 Z M127.505123,35 C124.685377,34.9379758 122.005784,34.3717176 119.463007,33.1633937 C115.243954,31.1590924 112.388614,27.849985 110.940365,23.3118791 C109.735716,19.5387387 109.692336,15.6886423 110.787977,11.8844897 C112.217315,6.92140304 115.319593,3.42162864 119.975789,1.53563272 C125.065792,-0.523801313 130.240333,-0.539881668 135.292517,1.65738398 C141.126667,4.19578287 144.215596,8.8992867 144.882991,15.353252 C145.181095,18.230487 144.924147,21.0571836 143.944188,23.7655749 C141.82632,29.6142297 137.677344,33.0726546 131.842082,34.4119184 C130.423866,34.7369713 128.952259,34.8104815 127.505123,35 Z" id="Fill-7" fill="#FFFFFF"></path>
            <path d="M164.147324,13.4361179 C164.215705,20.2401573 164.284086,27.0419695 164.353687,33.9150515 C161.597698,33.9150515 158.922301,33.9150515 156.238356,33.9150515 C156.001465,33.2190573 155.895231,4.18329242 156.137006,2.07637874 C156.444719,2.05856129 156.768307,2.02292639 157.091894,2.02292639 C159.67571,2.01958561 162.259526,2.05299334 164.8409,2.00065457 C165.596752,1.9850643 165.967962,2.24787172 166.337951,2.79909913 C170.558021,9.08197807 174.804955,15.3503803 179.045783,21.6221234 C179.259473,21.936156 179.486595,22.2446206 179.828499,22.7256918 C180.025093,21.4495168 179.901764,20.3481756 179.916417,19.2524023 C179.932291,18.0920407 179.906648,16.9316792 179.899322,15.7713176 C179.890774,14.6443638 179.883447,13.5185236 179.8749,12.3915697 C179.866352,11.2646159 179.861468,10.1387757 179.846815,9.01182185 C179.833383,7.85146031 179.802856,6.69109876 179.793087,5.53073721 C179.783318,4.40935134 179.790645,3.28907905 179.790645,2.09530978 C182.534423,2.09530978 185.237906,2.09530978 188,2.09530978 C188,12.6989208 188,23.2702377 188,33.9105972 C187.70694,33.9362097 187.421206,33.981867 187.134251,33.9829806 C184.513802,33.9885485 181.893354,33.9640495 179.274126,33.9996844 C178.584213,34.0097067 178.20934,33.7814206 177.857667,33.2569194 C173.593638,26.9194745 169.303966,20.5942791 165.017958,14.2679701 C164.814036,13.9650735 164.58203,13.6766535 164.363456,13.3837791 C164.291412,13.400483 164.219368,13.419414 164.147324,13.4361179" id="Fill-8" fill="#FFFFFF"></path>
            <path d="M62.6119616,8.4884951 C62.6119616,17.0497814 62.6119616,25.4257778 62.6119616,33.7872636 C61.9124031,34.0127369 57.0762798,34.0797091 55.4103208,33.8866058 C55.4103208,25.4771232 55.4103208,17.05313 55.4103208,8.54430531 C52.5914811,8.54430531 49.8880325,8.54430531 47.2093106,8.54430531 C46.9888312,7.75514893 46.9280448,3.69328179 47.0970103,2 C55.0002703,2 62.9097119,2 70.8243048,2 C71.0128457,2.69093041 71.0695109,6.83874527 70.895394,8.4884951 C68.1816426,8.4884951 65.4534674,8.4884951 62.6119616,8.4884951" id="Fill-9" fill="#FFFFFF"></path>
            <path d="M104,27.2658777 C104,29.5686861 104,31.7474713 104,34 C96.6776029,34 89.3685722,34 82,34 C82,23.3630589 82,12.7607548 82,2.01990241 C84.8118199,1.99196927 87.6139188,1.99308659 90.5156587,2.02548904 C90.5156587,10.4478905 90.5156587,18.7931966 90.5156587,27.2658777 C95.0553991,27.2658777 99.500359,27.2658777 104,27.2658777" id="Fill-10" fill="#FFFFFF"></path>
        </g>
    </g>
</svg>
